<svg width="177" height="48" viewBox="0 0 177 48" fill="none" xmlns="http://www.w3.org/2000/svg">
<path d="M18.6503 18.0981C18.5221 16.8983 17.9817 15.9641 17.0291 15.2954C16.0857 14.6268 14.8584 14.2925 13.3472 14.2925C12.2847 14.2925 11.3734 14.4528 10.6132 14.7734C9.85299 15.0939 9.27138 15.529 8.86838 16.0785C8.46538 16.6281 8.2593 17.2555 8.25014 17.9607C8.25014 18.5469 8.38295 19.0552 8.64857 19.4857C8.92334 19.9162 9.29428 20.2826 9.76139 20.5848C10.2285 20.8779 10.746 21.1252 11.3139 21.3267C11.8817 21.5282 12.4542 21.6976 13.0312 21.835L15.669 22.4945C16.7315 22.7418 17.7527 23.0761 18.7327 23.4974C19.7219 23.9187 20.6058 24.45 21.3843 25.0911C22.172 25.7322 22.7948 26.5062 23.2527 27.4129C23.7107 28.3197 23.9397 29.3821 23.9397 30.6003C23.9397 32.2489 23.5184 33.7006 22.6757 34.9554C21.8331 36.2011 20.6149 37.1765 19.0212 37.8818C17.4367 38.5779 15.5179 38.9259 13.2647 38.9259C11.0757 38.9259 9.17521 38.587 7.56321 37.9092C5.96037 37.2315 4.70558 36.2423 3.79883 34.9417C2.90123 33.6411 2.4158 32.0566 2.34253 30.1881H7.35713C7.43041 31.1681 7.73266 31.9833 8.26388 32.6336C8.79511 33.2839 9.48662 33.7693 10.3384 34.0899C11.1994 34.4105 12.1611 34.5707 13.2235 34.5707C14.3318 34.5707 15.3026 34.4059 16.1361 34.0762C16.9788 33.7373 17.6382 33.2702 18.1145 32.6748C18.5908 32.0703 18.8335 31.3651 18.8426 30.5591C18.8335 29.8263 18.6182 29.2218 18.1969 28.7456C17.7756 28.2601 17.1848 27.8571 16.4246 27.5366C15.6736 27.2068 14.7943 26.9137 13.7868 26.6573L10.5857 25.833C8.26846 25.2376 6.43664 24.3355 5.09026 23.1265C3.75303 21.9083 3.08442 20.2917 3.08442 18.2767C3.08442 16.6189 3.53321 15.1672 4.4308 13.9216C5.33755 12.6759 6.56945 11.7097 8.1265 11.0227C9.68354 10.3266 11.4467 9.97859 13.4159 9.97859C15.4126 9.97859 17.1619 10.3266 18.664 11.0227C20.1753 11.7097 21.3614 12.6668 22.2223 13.8941C23.0833 15.1123 23.5275 16.5136 23.555 18.0981H18.6503ZM35.5124 38.5H30.0719L39.9775 10.3633H46.2698L56.1891 38.5H50.7486L43.2335 16.1335H43.0137L35.5124 38.5ZM35.691 27.4679H50.5287V31.562H35.691V27.4679ZM86.886 10.3633V38.5H82.3522L69.0944 19.3346H68.8609V38.5H63.7639V10.3633H68.3251L81.5691 29.5424H81.8164V10.3633H86.886ZM105.843 38.5H96.3086V10.3633H106.036C108.829 10.3633 111.229 10.9266 113.235 12.0531C115.25 13.1705 116.798 14.778 117.878 16.8754C118.959 18.9728 119.499 21.4824 119.499 24.4042C119.499 27.3351 118.954 29.8538 117.865 31.9604C116.784 34.067 115.222 35.6836 113.18 36.8101C111.146 37.9367 108.701 38.5 105.843 38.5ZM101.406 34.0899H105.596C107.556 34.0899 109.191 33.7327 110.501 33.0183C111.81 32.2947 112.795 31.2185 113.454 29.7897C114.114 28.3517 114.444 26.5565 114.444 24.4042C114.444 22.2518 114.114 20.4657 113.454 19.0461C112.795 17.6173 111.82 16.5502 110.528 15.845C109.246 15.1306 107.652 14.7734 105.747 14.7734H101.406V34.0899Z" fill="black" fill-opacity="0.85"/>
<rect x="146.44" y="15.1288" width="20.8" height="5.2" transform="rotate(-180 146.44 15.1288)" fill="black" fill-opacity="0.85"/>
<rect x="146.44" y="26.6" width="20.8" height="5.2" transform="rotate(-180 146.44 26.6)" fill="black" fill-opacity="0.85"/>
<rect x="146.44" y="38.0712" width="20.8" height="5.2" transform="rotate(-180 146.44 38.0712)" fill="black" fill-opacity="0.85"/>
<path d="M153.271 38.5V10.3633H163.822C165.984 10.3633 167.797 10.7388 169.263 11.4898C170.738 12.2409 171.85 13.2942 172.601 14.6497C173.362 15.9961 173.742 17.5669 173.742 19.3621C173.742 21.1664 173.357 22.7326 172.588 24.0607C171.827 25.3796 170.706 26.4008 169.222 27.1244C167.738 27.8388 165.915 28.196 163.754 28.196H156.239V23.9645H163.067C164.331 23.9645 165.366 23.7905 166.172 23.4425C166.978 23.0852 167.573 22.5678 167.958 21.89C168.352 21.2031 168.549 20.3604 168.549 19.3621C168.549 18.3637 168.352 17.5119 167.958 16.8067C167.564 16.0923 166.964 15.5519 166.158 15.1855C165.352 14.81 164.312 14.6222 163.039 14.6222H158.368V38.5H153.271ZM167.807 25.7505L174.772 38.5H169.084L162.243 25.7505H167.807Z" fill="black" fill-opacity="0.85"/>
</svg>
